<?xml version="1.0" encoding="UTF-8" standalone="no"?>
<!DOCTYPE svg PUBLIC "-//W3C//DTD SVG 1.1//EN"
 "http://www.w3.org/Graphics/SVG/1.1/DTD/svg11.dtd">
<!-- Generated by graphviz version 2.43.0 (0)
 -->
<!-- Title: %3 Pages: 1 -->
<svg width="1315pt" height="46pt"
 viewBox="0.00 0.00 1315.00 46.00" xmlns="http://www.w3.org/2000/svg" xmlns:xlink="http://www.w3.org/1999/xlink">
<g id="graph0" class="graph" transform="scale(1 1) rotate(0) translate(4 42)">
<title>%3</title>
<polygon fill="white" stroke="transparent" points="-4,4 -4,-42 1311,-42 1311,4 -4,4"/>
<!-- 1 -->
<g id="node1" class="node">
<title>1</title>
<path fill="#e3f2fd" stroke="black" d="M338,-38C338,-38 12,-38 12,-38 6,-38 0,-32 0,-26 0,-26 0,-12 0,-12 0,-6 6,0 12,0 12,0 338,0 338,0 344,0 350,-6 350,-12 350,-12 350,-26 350,-26 350,-32 344,-38 338,-38"/>
<text text-anchor="middle" x="175" y="-22.8" font-family="Times,serif" font-size="14.00">Vision &amp; Alignment</text>
<text text-anchor="middle" x="175" y="-7.8" font-family="Times,serif" font-size="14.00">Translate business needs into a clear roadmap</text>
</g>
<!-- 2 -->
<g id="node2" class="node">
<title>2</title>
<path fill="#bbdefb" stroke="black" d="M666,-38C666,-38 398,-38 398,-38 392,-38 386,-32 386,-26 386,-26 386,-12 386,-12 386,-6 392,0 398,0 398,0 666,0 666,0 672,0 678,-6 678,-12 678,-12 678,-26 678,-26 678,-32 672,-38 666,-38"/>
<text text-anchor="middle" x="532" y="-22.8" font-family="Times,serif" font-size="14.00">Architecture &amp; Governance First</text>
<text text-anchor="middle" x="532" y="-7.8" font-family="Times,serif" font-size="14.00">Define layers &amp; security before coding</text>
</g>
<!-- 1&#45;&gt;2 -->
<g id="edge1" class="edge">
<title>1&#45;&gt;2</title>
<path fill="none" stroke="black" d="M350.12,-19C358.6,-19 367.1,-19 375.53,-19"/>
<polygon fill="black" stroke="black" points="375.77,-22.5 385.77,-19 375.77,-15.5 375.77,-22.5"/>
</g>
<!-- 3 -->
<g id="node3" class="node">
<title>3</title>
<path fill="#90caf9" stroke="black" d="M978,-38C978,-38 726,-38 726,-38 720,-38 714,-32 714,-26 714,-26 714,-12 714,-12 714,-6 720,0 726,0 726,0 978,0 978,0 984,0 990,-6 990,-12 990,-12 990,-26 990,-26 990,-32 984,-38 978,-38"/>
<text text-anchor="middle" x="852" y="-22.8" font-family="Times,serif" font-size="14.00">Modular, Portable Execution</text>
<text text-anchor="middle" x="852" y="-7.8" font-family="Times,serif" font-size="14.00">Containerized, CI/CD&#45;enabled builds</text>
</g>
<!-- 2&#45;&gt;3 -->
<g id="edge2" class="edge">
<title>2&#45;&gt;3</title>
<path fill="none" stroke="black" d="M678.04,-19C686.64,-19 695.29,-19 703.89,-19"/>
<polygon fill="black" stroke="black" points="703.96,-22.5 713.96,-19 703.96,-15.5 703.96,-22.5"/>
</g>
<!-- 4 -->
<g id="node4" class="node">
<title>4</title>
<path fill="#64b5f6" stroke="black" d="M1295,-38C1295,-38 1038,-38 1038,-38 1032,-38 1026,-32 1026,-26 1026,-26 1026,-12 1026,-12 1026,-6 1032,0 1038,0 1038,0 1295,0 1295,0 1301,0 1307,-6 1307,-12 1307,-12 1307,-26 1307,-26 1307,-32 1301,-38 1295,-38"/>
<text text-anchor="middle" x="1166.5" y="-22.8" font-family="Times,serif" font-size="14.00">Ops&#45;Ready Delivery</text>
<text text-anchor="middle" x="1166.5" y="-7.8" font-family="Times,serif" font-size="14.00">Monitoring, DQ checks, cost controls</text>
</g>
<!-- 3&#45;&gt;4 -->
<g id="edge3" class="edge">
<title>3&#45;&gt;4</title>
<path fill="none" stroke="black" d="M990.07,-19C998.55,-19 1007.12,-19 1015.65,-19"/>
<polygon fill="black" stroke="black" points="1015.66,-22.5 1025.66,-19 1015.66,-15.5 1015.66,-22.5"/>
</g>
</g>
</svg>
